# xmcd
#
# Track frame offsets:
#	150
#	12817
#	27052
#	43315
#	64562
#	73897
#	85757
#	100047
#	115067
#	128507
#	143012
#	157035
#	169510
#	189625
#
# Disc length: 2769 seconds
#
# Revision: 0
# Processed by: cddbd v1.5.2PL0 Copyright (c) Steve Scherf et al.
# Submitted via: audiograbber 1.81.02
#
DISCID=af0acf0e
DTITLE=Sunshine Kids - Weihnachtsglocken, Plätzchenduft
DYEAR=2006
DGENRE=Pop
TTITLE0=Winterfreude
TTITLE1=Advent ist da
TTITLE2=Vanillekipferl
TTITLE3=Bald ist wieder Weihnachten
TTITLE4=S-O-S Weihnachtsstress
TTITLE5=Wir schmücken unsern Weihnachtsbaum
TTITLE6=Zu Bethlehem geboren
TTITLE7=Weihnachtsglocken, Plätzchenduft
TTITLE8=Ehre sei dem König
TTITLE9=Die Karawane
TTITLE10=Freut euch mit uns
TTITLE11=Weihnachten ist wunderbar
TTITLE12=MEDLEY Alle Jahre wieder - Kommet, ihr Hirten - Mit den Hirten will ic
TTITLE12=h gehen - Macht hoch die Tür
TTITLE13=BONUSTRACK You Are The Shepherd
EXTD=www.gerth.de, Art.-Nr. 939943
EXTT0=
EXTT1=
EXTT2=
EXTT3=
EXTT4=
EXTT5=
EXTT6=
EXTT7=
EXTT8=
EXTT9=
EXTT10=
EXTT11=
EXTT12=
EXTT13=
PLAYORDER=
